<svg width="84" height="83" viewBox="0 0 84 83" fill="none" xmlns="http://www.w3.org/2000/svg">
<path d="M54.9133 78.3135C55.1295 79.0197 55.8785 79.4191 56.5772 79.1797C66.2847 75.8539 74.3862 68.9582 79.2159 59.8668C84.2552 50.381 85.3198 39.2819 82.1756 29.0111C79.0314 18.7403 71.936 10.1392 62.4502 5.09996C53.3588 0.270239 42.7854 -0.908527 32.8798 1.76985C32.1667 1.96264 31.7697 2.71281 31.9859 3.41909C32.2021 4.12537 32.9497 4.52015 33.6632 4.32902C42.89 1.8573 52.7304 2.96528 61.1953 7.46216C70.0546 12.1686 76.6814 20.2016 79.618 29.7941C82.5545 39.3865 81.5602 49.7526 76.8537 58.6119C72.3569 67.0768 64.823 73.5035 55.7938 76.6205C55.0956 76.8616 54.6971 77.6072 54.9133 78.3135Z" fill="#EBA7AC"/>
<path d="M52.0448 79.1918C52.261 79.8981 51.864 80.6483 51.151 80.8411C41.2453 83.5194 30.672 82.3407 21.5806 77.511C12.0948 72.4717 4.99929 63.8706 1.8551 53.5998C-1.28909 43.3291 -0.224458 32.2299 4.8148 22.7441C9.64451 13.6527 17.746 6.75703 27.4535 3.43123C28.1523 3.19183 28.9012 3.59118 29.1174 4.29746C29.3336 5.00374 28.9352 5.74935 28.237 5.99038C19.2077 9.1074 11.6739 15.5342 7.17699 23.999C2.47056 32.8583 1.47624 43.2244 4.41277 52.8169C7.34931 62.4093 13.9762 70.4423 22.8355 75.1488C31.3003 79.6456 41.1407 80.7536 50.3676 78.2819C51.081 78.0908 51.8286 78.4855 52.0448 79.1918Z" fill="#F5DADC"/>
<path d="M42.4717 33.3057V25.3057H47.4717V29.3057H42.4717" stroke="#D00846" stroke-width="2" stroke-linecap="round" stroke-linejoin="round"/>
<path d="M44.4717 55.3057V48.3057H40.4717V55.3057" stroke="#D00846" stroke-width="2" stroke-linecap="round" stroke-linejoin="round"/>
<path fill-rule="evenodd" clip-rule="evenodd" d="M44.4717 43.3057H40.4717V40.3057H44.4717V43.3057Z" stroke="#D00846" stroke-width="2" stroke-linecap="round" stroke-linejoin="round"/>
<path fill-rule="evenodd" clip-rule="evenodd" d="M36.4717 51.3057H32.4717V48.3057H36.4717V51.3057Z" stroke="#D00846" stroke-width="2" stroke-linecap="round" stroke-linejoin="round"/>
<path fill-rule="evenodd" clip-rule="evenodd" d="M52.4717 51.3057H48.4717V48.3057H52.4717V51.3057Z" stroke="#D00846" stroke-width="2" stroke-linecap="round" stroke-linejoin="round"/>
<path fill-rule="evenodd" clip-rule="evenodd" d="M49.4717 44.3057V38.3057L42.4717 33.3057L35.4717 38.3057V44.3057H28.4717V55.3057H56.4717V44.3057H49.4717V44.3057Z" stroke="#D00846" stroke-width="2" stroke-linecap="round" stroke-linejoin="round"/>
</svg>
