<svg width="82" height="84" viewBox="0 0 82 84" fill="none" xmlns="http://www.w3.org/2000/svg">
<path d="M3.42159 52.3284C2.70476 52.5065 2.26592 53.233 2.4676 53.9436C5.26947 63.815 11.722 72.2737 20.5421 77.5828C29.7448 83.1221 40.7711 84.7789 51.1953 82.1885C61.6196 79.5981 70.5878 72.9728 76.1272 63.7701C81.4362 54.95 83.1788 44.4548 81.034 34.4201C80.8797 33.6978 80.1518 33.2612 79.435 33.4393C78.7181 33.6174 78.2839 34.3428 78.4366 35.0655C80.4113 44.4113 78.7787 54.1784 73.8355 62.3906C68.662 70.9856 60.286 77.1733 50.5503 79.5926C40.8145 82.0119 30.5164 80.4646 21.9215 75.2911C13.7093 70.3479 7.69465 62.4812 5.065 53.2981C4.86166 52.588 4.13842 52.1502 3.42159 52.3284Z" fill="#F5DADC"/>
<path d="M3.06521 50.7832C2.34838 50.9613 1.62052 50.5247 1.46613 49.8024C-0.678633 39.7676 1.06393 29.2725 6.37297 20.4524C11.9123 11.2497 20.8806 4.62438 31.3048 2.03399C41.7291 -0.556399 52.7554 1.10032 61.9581 6.63969C70.7782 11.9487 77.2307 20.4074 80.0326 30.2789C80.2343 30.9894 79.7954 31.7159 79.0786 31.8941C78.3618 32.0722 77.6385 31.6344 77.4352 30.9244C74.8055 21.7413 68.7909 13.8745 60.5787 8.93139C51.9837 3.75787 41.6857 2.21057 31.9499 4.62988C22.2141 7.04918 13.8382 13.2369 8.66467 21.8319C3.72151 30.0441 2.08883 39.8112 4.06355 49.157C4.21624 49.8797 3.78204 50.605 3.06521 50.7832Z" fill="#EBA7AC"/>
<path d="M44.25 44.0001C50.325 44.0001 55.25 48.9251 55.25 55.0001V55.0001H25.25C25.25 48.9251 30.175 44.0001 36.25 44.0001" stroke="#D00846" stroke-width="2" stroke-linecap="round" stroke-linejoin="round"/>
<path d="M34.25 44.1842V48.0002L40.25 46.0002L46.25 48.0002V44.1842" stroke="#D00846" stroke-width="2" stroke-linecap="round" stroke-linejoin="round"/>
<path d="M49.25 52.0001H45.25" stroke="#D00846" stroke-width="2" stroke-linecap="round" stroke-linejoin="round"/>
<path d="M40.25 45.0001V55.0001" stroke="#D00846" stroke-width="2" stroke-linecap="round" stroke-linejoin="round"/>
<path fill-rule="evenodd" clip-rule="evenodd" d="M40.25 45.0001V45.0001C35.832 45.0001 32.25 41.4181 32.25 37.0001V33.0001C32.25 28.5821 35.832 25.0001 40.25 25.0001C44.668 25.0001 48.25 28.5821 48.25 33.0001V37.0001C48.25 41.4181 44.668 45.0001 40.25 45.0001V45.0001Z" stroke="#D00846" stroke-width="2" stroke-linecap="round" stroke-linejoin="round"/>
<path d="M32.25 34.0001C33.544 35.0631 34.445 36.0001 36.25 36.0001C39.281 36.0001 42.067 34.5871 43.25 32.0001C44.155 33.9811 46.125 35.0001 48.25 35.0001" stroke="#D00846" stroke-width="2" stroke-linecap="round" stroke-linejoin="round"/>
</svg>
