<svg width="83" height="85" viewBox="0 0 83 85" fill="none" xmlns="http://www.w3.org/2000/svg">
<path d="M79.902 51.7628C80.613 51.9626 81.3538 51.5484 81.5301 50.8311C83.979 40.8662 82.5563 30.3229 77.5179 21.3455C72.2609 11.9786 63.4982 5.08369 53.1575 2.17757C42.8169 -0.728555 31.7453 0.592159 22.3784 5.84917C13.401 10.8876 6.69428 19.1462 3.59358 28.9279C3.37039 29.632 3.78693 30.3715 4.49802 30.5714C5.2091 30.7712 5.94531 30.3556 6.17015 29.6521C9.07779 20.5532 15.3288 12.8729 23.6875 8.18175C32.4358 3.27194 42.7761 2.03846 52.4338 4.75264C62.0916 7.46683 70.2755 13.9064 75.1853 22.6546C79.8765 31.0133 81.2115 40.8255 78.9535 50.107C78.7789 50.8247 79.1909 51.5629 79.902 51.7628Z" fill="#EBA7AC"/>
<path d="M79.0905 54.6507C79.8016 54.8505 80.2181 55.59 79.9949 56.2941C76.8942 66.0758 70.1875 74.3345 61.2101 79.3729C51.8432 84.6299 40.7716 85.9506 30.431 83.0445C20.0903 80.1384 11.3276 73.2434 6.07061 63.8766C1.03219 54.8992 -0.390479 44.3559 2.05839 34.391C2.23466 33.6737 2.97545 33.2594 3.68654 33.4593C4.39763 33.6591 4.80957 34.3974 4.63497 35.1151C2.37703 44.3965 3.712 54.2087 8.40319 62.5674C13.313 71.3157 21.497 77.7552 31.1547 80.4694C40.8124 83.1836 51.1527 81.9501 59.901 77.0403C68.2597 72.3491 74.5107 64.6688 77.4184 55.57C77.6432 54.8664 78.3794 54.4508 79.0905 54.6507Z" fill="#F5DADC"/>
<path d="M29.25 38V49.0179C29.25 51.7693 34.1743 54 40.25 54C46.3257 54 51.25 51.7693 51.25 49.0179V38" stroke="#D00846" stroke-width="2" stroke-linecap="round" stroke-linejoin="round"/>
<path fill-rule="evenodd" clip-rule="evenodd" d="M40.25 44L24.25 35.5L40.25 27L56.25 35.5L40.25 44V44Z" stroke="#D00846" stroke-width="2" stroke-linecap="round" stroke-linejoin="round"/>
<path d="M47.8974 57.2873L50.25 61H45.5448L47.8974 57.2873V39.6941L42.25 36" stroke="#D00846" stroke-width="2" stroke-linecap="round" stroke-linejoin="round"/>
<path fill-rule="evenodd" clip-rule="evenodd" d="M37.25 35.5C37.25 34.672 38.5925 34 40.25 34C41.9075 34 43.25 34.672 43.25 35.5C43.25 36.328 41.9075 37 40.25 37C38.5925 37 37.25 36.328 37.25 35.5V35.5Z" stroke="#D00846" stroke-width="2" stroke-linecap="round" stroke-linejoin="round"/>
</svg>
