<svg width="83" height="83" viewBox="0 0 83 83" fill="none" xmlns="http://www.w3.org/2000/svg">
<path d="M69.5873 69.4783C70.0996 70.0104 70.9481 70.0278 71.4631 69.4983C78.6166 62.1414 82.7232 52.3271 82.9187 42.0343C83.1227 31.295 79.0521 20.9145 71.6025 13.1764C64.1529 5.43834 53.9344 0.976544 43.1951 0.772571C32.9023 0.577079 22.9391 4.30803 15.316 11.1771C14.7673 11.6715 14.7524 12.5202 15.2647 13.0523C15.777 13.5844 16.6223 13.5984 17.1722 13.1052C24.2834 6.7275 33.5608 3.2649 43.1443 3.44692C53.1743 3.63743 62.7179 7.80454 69.6755 15.0316C76.6331 22.2586 80.4348 31.9535 80.2443 41.9836C80.0623 51.567 76.2499 60.7063 69.6068 67.5702C69.0931 68.1009 69.075 68.9462 69.5873 69.4783Z" fill="#F5DADC"/>
<path d="M68.4267 70.5588C68.9389 71.091 68.9241 71.9396 68.3754 72.434C60.7523 79.3031 50.7891 83.034 40.4963 82.8385C29.757 82.6346 19.5385 78.1728 12.0889 70.4347C4.63929 62.6966 0.568723 52.3161 0.772693 41.5768C0.968181 31.284 5.07477 21.4697 12.2283 14.1129C12.7433 13.5833 13.5918 13.6007 14.1041 14.1329C14.6164 14.665 14.5983 15.5102 14.0846 16.0409C7.44145 22.9048 3.62906 32.0441 3.44705 41.6276C3.25655 51.6576 7.05827 61.3525 14.0159 68.5796C20.9735 75.8066 30.5171 79.9737 40.5471 80.1642C50.1306 80.3462 59.408 76.8836 66.5192 70.5059C67.0691 70.0127 67.9144 70.0267 68.4267 70.5588Z" fill="#EBA7AC"/>
<path fill-rule="evenodd" clip-rule="evenodd" d="M27.8457 33.3057C27.8457 31.6487 29.1887 30.3057 30.8457 30.3057C32.5027 30.3057 33.8457 31.6487 33.8457 33.3057V35.3057H27.8457V33.3057V33.3057Z" stroke="#D00846" stroke-width="2" stroke-linecap="round" stroke-linejoin="round"/>
<path d="M52.8457 33.3059V33.3059C52.8457 31.6489 51.5027 30.3059 49.8457 30.3059H30.8457C32.5027 30.3059 33.8457 31.6489 33.8457 33.3059V57.3059C33.8457 58.9629 35.1887 60.3059 36.8457 60.3059H52.8457" stroke="#D00846" stroke-width="2" stroke-linecap="round" stroke-linejoin="round"/>
<path fill-rule="evenodd" clip-rule="evenodd" d="M39.8457 57.3057C39.8457 58.9627 38.5027 60.3057 36.8457 60.3057H54.8457C56.5027 60.3057 57.8457 58.9627 57.8457 57.3057V55.3057H39.8457V57.3057V57.3057Z" stroke="#D00846" stroke-width="2" stroke-linecap="round" stroke-linejoin="round"/>
<path d="M38.8457 38.3057H41.8457" stroke="#D00846" stroke-width="2" stroke-linecap="round" stroke-linejoin="round"/>
<path d="M38.8457 43.3057H41.8457" stroke="#D00846" stroke-width="2" stroke-linecap="round" stroke-linejoin="round"/>
<path d="M38.8457 48.3057H44.8457" stroke="#D00846" stroke-width="2" stroke-linecap="round" stroke-linejoin="round"/>
<path d="M54.8457 44.5027V50.3057L51.8457 48.3057L48.8457 50.3057V44.5027" stroke="#D00846" stroke-width="2" stroke-linecap="round" stroke-linejoin="round"/>
<path fill-rule="evenodd" clip-rule="evenodd" d="M45.8457 39.3057C45.8457 35.9917 48.5317 33.3057 51.8457 33.3057C55.1597 33.3057 57.8457 35.9917 57.8457 39.3057C57.8457 42.6197 55.1597 45.3057 51.8457 45.3057C48.5317 45.3057 45.8457 42.6197 45.8457 39.3057V39.3057Z" stroke="#D00846" stroke-width="2" stroke-linecap="round" stroke-linejoin="round"/>
</svg>
