<svg width="85" height="84" viewBox="0 0 85 84" fill="none" xmlns="http://www.w3.org/2000/svg">
<path d="M21.6287 75.4497C21.2109 76.0588 21.3651 76.8934 21.9877 77.2909C30.6368 82.8127 41.0779 84.8542 51.1983 82.9685C61.7579 81.0011 71.1034 74.9194 77.1789 66.0615C83.2544 57.2036 85.5623 46.2949 83.5948 35.7354C81.7092 25.6149 76.0444 16.6097 67.7782 10.5296C67.1832 10.0919 66.3491 10.2487 65.9313 10.8578C65.5135 11.4669 65.6704 12.2976 66.2644 12.7367C73.9459 18.4145 79.2095 26.8023 80.9652 36.2253C82.8027 46.0875 80.6473 56.2756 74.973 64.5485C69.2988 72.8214 60.5705 78.5014 50.7084 80.3389C41.2854 82.0947 31.5648 80.2051 23.5015 75.0838C22.878 74.6878 22.0465 74.8406 21.6287 75.4497Z" fill="#EBA7AC"/>
<path d="M19.155 73.7533C18.7372 74.3624 17.9031 74.5192 17.3081 74.0815C9.04198 68.0014 3.37718 58.9961 1.49152 48.8757C-0.475944 38.3161 1.83193 27.4075 7.90745 18.5496C13.983 9.69164 23.3284 3.60999 33.888 1.64252C44.0084 -0.243133 54.4496 1.7984 63.0986 7.32014C63.7212 7.71761 63.8754 8.55224 63.4576 9.16137C63.0398 9.77049 62.2083 9.9233 61.5848 9.52729C53.5216 4.406 43.8009 2.5164 34.3779 4.2721C24.5158 6.10963 15.7875 11.7896 10.1133 20.0625C4.43903 28.3354 2.28358 38.5236 4.1211 48.3857C5.87681 57.8087 11.1404 66.1966 18.8219 71.8744C19.4159 72.3134 19.5728 73.1441 19.155 73.7533Z" fill="#F5DADC"/>
<path d="M50.5397 34.3057H37.4607" stroke="#D00846" stroke-width="2" stroke-linecap="round" stroke-linejoin="round"/>
<path d="M37.2818 44.3177L29.9998 34.3057L33.9998 29.3057H53.9998L57.9998 34.3057L50.7188 44.3177" stroke="#D00846" stroke-width="2" stroke-linecap="round" stroke-linejoin="round"/>
<path d="M33.9998 29.3057L42.4048 41.4467" stroke="#D00846" stroke-width="2" stroke-linecap="round" stroke-linejoin="round"/>
<path d="M53.9994 29.3057L45.5984 41.4467" stroke="#D00846" stroke-width="2" stroke-linecap="round" stroke-linejoin="round"/>
<path fill-rule="evenodd" clip-rule="evenodd" d="M34.9998 50.3057C34.9998 45.3347 39.0288 41.3057 43.9998 41.3057C48.9708 41.3057 52.9998 45.3347 52.9998 50.3057C52.9998 55.2767 48.9708 59.3057 43.9998 59.3057C39.0288 59.3057 34.9998 55.2767 34.9998 50.3057V50.3057Z" stroke="#D00846" stroke-width="2" stroke-linecap="round" stroke-linejoin="round"/>
<path fill-rule="evenodd" clip-rule="evenodd" d="M38.9998 48.8692L42.4588 48.3932L44.0278 45.2742L45.5488 48.4172L48.9998 48.9452L46.4818 51.3632L47.0458 54.8082L43.9678 53.1602L40.8648 54.7612L41.4818 51.3252L38.9998 48.8692V48.8692Z" stroke="#D00846" stroke-width="2" stroke-linecap="round" stroke-linejoin="round"/>
</svg>
